<svg width="32" height="32" viewBox="0 0 32 32" fill="none" xmlns="http://www.w3.org/2000/svg">
<g clip-path="url(#clip0_5_2)">
<path d="M32 0H0V32H32V0Z" fill="white"/>
<path fill-rule="evenodd" clip-rule="evenodd" d="M23.2574 9C20.5106 9 18.6279 10.7162 17.0007 12.8426L17.965 14.2511C19.4556 12.212 21.0398 10.6077 23.2574 10.6077C25.8046 10.6077 27.9228 12.4541 28.314 14.8628H21.9905V16.4706H29.9509C29.9835 16.2039 29.9999 15.9354 30 15.6667C30 11.9907 26.9753 9 23.2574 9Z" fill="#010101"/>
<path fill-rule="evenodd" clip-rule="evenodd" d="M23.2573 20.7256C20.5453 20.7256 18.7559 18.3834 16.4843 14.9468C14.2127 11.5103 12.0685 9 8.74272 9C5.02474 9 2 11.9907 2 15.6667C2 19.3427 5.02474 22.3333 8.74272 22.3333C11.4846 22.3333 13.3656 20.623 14.9908 18.5019L14.0336 17.0843C12.5434 19.1225 10.9595 20.7256 8.74272 20.7256C5.9184 20.7256 3.6207 18.4562 3.6207 15.6667C3.6207 12.8772 5.9184 10.6077 8.74272 10.6077C11.4547 10.6077 13.1476 12.8306 15.5107 16.3808C17.8739 19.9311 19.9315 22.3333 23.2573 22.3333C24.6109 22.3358 25.934 21.9315 27.0549 21.1727C28.1758 20.414 29.0427 19.3358 29.5433 18.0782H27.759C27.3139 18.8817 26.6615 19.5512 25.8698 20.0168C25.078 20.4824 24.1759 20.7272 23.2573 20.7256Z" fill="#010101"/>
</g>
<defs>
<clipPath id="clip0_5_2">
<rect width="32" height="32" rx="16" fill="white"/>
</clipPath>
</defs>
</svg>
